<?xml version="1.0" encoding="UTF-8"?>
<svg width="2428px" height="340px" viewBox="0 0 2428 340" version="1.1" xmlns="http://www.w3.org/2000/svg" xmlns:xlink="http://www.w3.org/1999/xlink">
    <title>Shape</title>
    <g id="Page-1" stroke="none" stroke-width="1" fill="none" fill-rule="evenodd">
        <g id="newsweek-logo-red" fill="#CC2229" fill-rule="nonzero">
            <path d="M2268.3511,247.416527 L2268.3511,261.605449 L2287.06647,261.605449 L2287.06647,330.838054 L2167.05723,330.838054 L2167.05723,262.033452 L2182.90629,262.033452 L2182.90629,65.0746021 L2168.02997,65.0746021 L2168.02997,1.00396356 L2268.3511,1.00396356 L2268.3511,194.071884 L2318.28469,159.248065 L2295.7173,159.248065 L2295.7173,90.8714644 L2426.76381,90.8714644 L2426.76381,159.248065 L2399.3976,159.248065 L2371.56449,180.751935 L2407.56855,262.033452 L2427.24369,262.033452 L2427.24369,330.838054 L2295.23742,330.838054 L2295.23742,261.605449 L2315.88529,261.605449 L2301.00896,225.484654 L2268.3511,247.416527 L2268.3511,247.416527 Z M2086.69657,236.223619 L2165.42304,236.223619 C2145.25506,304.159248 2119.3285,339.424039 2034.37654,339.424039 C1994.54639,339.424039 1962.84828,326.519123 1938.85422,305.028222 C1916.2998,284.808359 1902.86312,249.556538 1902.86312,210.854759 C1902.86312,172.152981 1920.15182,139.028201 1938.85422,120.546286 C1959.50209,99.8984208 1994.54639,86.5784723 2034.37654,86.5784723 C2078.53859,86.5784723 2117.42194,97.3304074 2134.69767,116.253294 C2152.45328,136.460188 2166.36984,172.152981 2166.36984,210.854759 L2166.36984,223.746706 L2006.53045,223.746706 C2006.53045,240.944614 2013.74164,258.142522 2014.7014,262.020482 C2017.10081,271.916412 2034.37654,279.21839 2050.6925,279.21839 C2058.3706,279.21839 2067.48835,275.768433 2074.69954,270.619436 C2079.49835,267.182448 2092.93503,250.412542 2086.69657,236.223619 L2086.69657,236.223619 Z M2008.44998,185.044927 L2068.46108,185.044927 L2068.46108,180.751935 C2068.46108,167.847019 2062.23559,157.523086 2060.3031,154.955073 C2058.38357,151.518085 2048.2931,146.356119 2040.13511,146.356119 C2028.60499,146.356119 2019.96713,150.221109 2016.62093,154.955073 C2016.62093,155.383075 2008.44998,167.847019 2008.44998,180.751935 L2008.44998,185.044927 L2008.44998,185.044927 Z M1896.84515,236.223619 C1875.7174,304.159248 1849.80381,339.424039 1764.34603,339.424039 C1724.51589,339.424039 1692.35087,326.519123 1668.3568,305.028222 C1645.80238,284.808359 1632.35274,249.556538 1632.35274,210.854759 C1632.35274,172.152981 1649.16155,139.897176 1668.3568,120.546286 C1689.95146,99.4704186 1724.51589,86.5784723 1764.34603,86.5784723 C1808.50808,86.5784723 1845.95179,96.4614331 1864.18728,116.253294 C1883.38254,136.88819 1896.3523,172.152981 1896.3523,210.854759 L1896.3523,223.746706 L1736.49995,223.746706 C1736.49995,240.944614 1743.23126,257.286518 1744.65793,262.020482 C1748.03007,272.344415 1764.34603,279.21839 1780.18212,279.21839 C1788.35307,279.21839 1798.41761,274.484426 1804.18915,270.619436 C1808.0282,268.038453 1822.42464,248.687564 1817.14595,235.782647 L1896.84515,236.223619 Z M1738.43244,185.044927 L1797.95069,185.044927 L1797.95069,180.751935 C1797.95069,167.847019 1792.672,157.964058 1790.27259,154.955073 C1786.91342,151.090083 1778.27556,146.356119 1770.10461,146.356119 C1758.10758,146.356119 1750.41651,149.365104 1746.09757,154.955073 C1745.61769,155.811077 1738.41947,167.847019 1738.41947,180.751935 L1738.41947,185.044927 L1738.43244,185.044927 L1738.43244,185.044927 Z M1306.42254,330.825085 L1234.41441,159.248065 L1218.08548,159.248065 L1218.08548,90.8714644 L1361.60889,90.8714644 L1361.60889,159.248065 L1346.23972,159.248065 L1365.92783,232.34566 L1390.89462,159.248065 L1372.17925,159.248065 L1372.17925,90.8714644 L1530.11208,90.8714644 L1530.11208,159.248065 L1514.26303,158.820063 L1537.77721,232.34566 L1561.78425,159.248065 L1540.66947,159.248065 L1540.66947,90.8714644 L1641.95036,90.8714644 L1641.95036,159.248065 L1621.78238,159.248065 L1554.10614,330.825085 L1473.94003,330.825085 L1430.25786,210.854759 L1386.09581,330.825085 L1306.42254,330.825085 L1306.42254,330.825085 Z M984.811285,159.248065 L973.774015,159.248065 L905.604931,330.825085 L825.918695,330.825085 L781.756646,210.854759 L738.074478,330.825085 L657.921331,330.825085 L585.913196,159.248065 L570.064143,159.248065 L570.064143,90.8714644 L714.080413,90.8714644 L714.080413,159.248065 L697.764448,159.248065 L717.932433,232.34566 L742.88626,159.248065 L723.691008,159.248065 L723.691008,90.8714644 L885.462886,90.8714644 L885.462886,159.248065 L866.747515,159.248065 L889.781817,232.34566 L913.775882,159.248065 L895.060512,159.248065 L895.060512,90.8714644 L993.475088,90.8714644 L993.475088,128.289236 C997.794019,120.118284 1003.07271,112.816307 1008.35141,107.64137 C1023.22773,93.8804499 1044.35548,86.5784723 1068.34954,86.5784723 C1084.18562,86.5784723 1098.11515,88.2904812 1108.19266,90.8714644 C1117.79028,93.4524477 1132.18672,99.0424163 1140.34471,107.64137 L1140.34471,90.8714644 L1208.02094,90.8714644 L1208.02094,167.847019 L1140.34471,167.847019 C1136.02577,159.248065 1126.42815,148.937102 1120.17672,146.356119 C1114.41815,143.775135 1104.34064,137.757164 1092.34361,137.757164 C1084.18562,137.757164 1077.94717,139.482143 1076.02764,142.050157 C1074.10812,144.203138 1068.34954,150.662081 1068.34954,154.955073 C1068.34954,159.248065 1074.10812,161.401046 1076.02764,163.554027 C1077.94717,166.13501 1089.9442,167.003984 1104.35361,172.152981 L1140.35767,185.044927 C1161.95233,192.800847 1185.95937,199.674822 1196.03688,210.854759 C1205.6345,222.021727 1216.20486,240.944614 1216.20486,257.71452 C1216.20486,283.511382 1208.04688,305.015252 1192.19783,317.920169 C1176.34877,330.825085 1160.51269,335.987051 1132.6666,335.987051 C1120.66957,335.987051 1103.87373,335.572019 1092.35658,330.838054 C1083.71871,327.388097 1068.34954,322.2391 1056.35251,313.640146 L1056.35251,330.838054 L984.331403,330.838054 L984.331403,253.434497 L1056.32657,253.434497 C1060.17859,262.033452 1065.45728,273.200419 1076.01467,279.23136 C1081.77325,282.240345 1092.33064,287.830314 1104.34064,287.830314 C1112.01874,287.830314 1118.2572,284.380357 1120.17672,283.524352 C1124.01577,281.812343 1128.3347,274.925398 1128.3347,270.632406 C1128.3347,262.033452 1113.93826,257.299487 1096.18266,253.434497 C1093.78325,253.006495 1088.98444,249.556538 1088.02467,249.556538 L1048.18156,240.957584 C1031.86559,237.520596 1010.25796,222.034697 1000.18046,210.867729 C990.58283,199.687792 984.344373,185.057897 984.344373,163.566997 C984.331403,160.973044 984.331403,161.829048 984.811285,159.248065 L984.811285,159.248065 Z M578.222125,235.795617 C556.627467,303.731246 527.821619,339.424039 443.336571,339.424039 C403.493453,339.424039 370.381643,326.09112 347.334371,305.028222 C324.300068,284.380357 311.810185,249.556538 311.810185,210.854759 C311.810185,172.152981 325.246861,142.037187 347.334371,120.546286 C371.341406,96.4614331 403.506423,86.5784723 443.336571,86.5784723 C487.49862,86.5784723 522.063043,93.8804499 543.177821,116.253294 C565.26533,139.482143 575.342838,172.152981 575.342838,210.854759 L575.342838,223.746706 L415.503455,223.746706 C415.503455,240.944614 419.822387,254.277532 423.661437,262.020482 C430.379775,274.484426 443.34954,279.21839 459.665505,279.21839 C467.343605,279.21839 477.434082,274.484426 483.179688,270.619436 C487.018739,268.038453 499.028741,245.678578 495.176721,235.782647 L578.222125,235.782647 L578.222125,235.795617 L578.222125,235.795617 Z M417.42298,185.044927 L477.421113,185.044927 L477.421113,180.751935 C477.421113,167.847019 474.541825,160.973044 469.263131,154.955073 C463.504555,148.49613 457.266098,146.356119 449.095146,146.356119 C437.098114,146.356119 432.299301,146.784121 425.101081,154.955073 C421.741912,158.39206 417.42298,167.847019 417.42298,180.751935 L417.42298,185.044927 Z M84.7744506,124.852248 L84.7744506,262.033452 L112.607566,262.033452 L112.607566,330.838054 L0.769283446,330.838054 L0.769283446,262.033452 L20.9242981,262.033452 L20.9242981,65.0746021 L0.769283446,65.0746021 L0.769283446,0.575961319 L132.77555,0.575961319 L236.455851,193.643881 L236.455851,65.0746021 L208.609766,65.0746021 L208.609766,0.575961319 L320.461018,0.575961319 L320.461018,65.0746021 L300.306003,65.0746021 L300.306003,330.825085 L192.773683,330.825085 L84.7744506,124.852248 Z" id="Shape"></path>
        </g>
    </g>
</svg>