<?xml version="1.0" encoding="UTF-8"?>
<svg width="2418px" height="374px" viewBox="0 0 2418 374" version="1.1" xmlns="http://www.w3.org/2000/svg" xmlns:xlink="http://www.w3.org/1999/xlink">
    <title>Newsweek_Logo</title>
    <g id="Page-1" stroke="none" stroke-width="1" fill="none" fill-rule="evenodd">
        <g id="Newsweek_Logo" fill="#FFFFFF" fill-rule="nonzero">
            <path d="M363.490985,66.916042 L329.401175,66.916042 L329.401175,364.136985 L265.482679,364.136985 L109.947732,161.728457 L109.947732,298.087886 L144.037543,298.087886 L144.037543,364.136985 L0.2209768,364.136985 L0.2209768,298.087886 L34.3108552,298.087886 L34.3108552,66.916042 L0.2209768,66.916042 L0.2209768,0.866949472 L109.947732,0.866949472 L254.82963,189.426465 L254.82963,66.916042 L220.739752,66.916042 L220.739752,0.866949472 L364.556318,0.866949472 C363.490985,0.866949472 363.490985,66.916042 363.490985,66.916042 L363.490985,66.916042 Z M591.466949,236.30002 L591.466949,253.344945 L432.736074,253.344945 C428.474814,304.479736 447.650383,319.394052 476.413669,319.394052 C500.915763,319.394052 519.026,303.414424 519.026,277.847032 L587.205689,277.847032 C586.140357,322.589966 562.703595,373.724756 472.152409,373.724756 C382.666555,373.724756 341.119556,308.740969 341.119556,236.30002 C341.119556,171.31623 383.731887,102.07121 471.087077,102.07121 C554.181143,102.07121 591.466949,160.66315 591.466949,236.30002 Z M983.500312,171.31623 L960.063482,171.31623 L901.471578,368.398219 L823.704037,368.398219 L787.48363,260.8021 L754.459084,368.398219 L675.626211,368.398219 L610.642519,171.31623 L587.205689,171.31623 L587.205689,104.201825 L724.630398,104.201825 L724.630398,171.31623 L690.54052,171.31623 L726.761062,275.716416 L773.634585,104.201825 L816.246916,104.201825 L873.773556,275.716416 L904.667506,171.31623 L870.577628,171.31623 L870.577628,104.201825 L985.63084,104.201825 C983.500312,104.201825 983.500312,171.31623 983.500312,171.31623 L983.500312,171.31623 Z M1080.44329,173.446845 C1080.44329,183.034618 1087.90047,189.426465 1113.4679,196.883622 L1150.75364,208.602005 C1184.84352,220.320399 1226.39052,244.822486 1226.39052,291.696036 C1226.39052,346.026748 1185.90885,372.659452 1134.774,372.659452 C1094.29233,372.659452 1063.39838,353.48391 1054.87593,343.896132 L1054.87593,366.267602 L987.761504,366.267602 L987.761504,274.651111 L1053.8106,274.651111 C1055.94126,304.479736 1082.57395,320.459356 1106.01071,320.459356 C1125.18628,320.459356 1134.774,311.93689 1134.774,302.349119 C1134.774,290.630732 1127.31688,283.17357 1094.29233,272.520494 L1061.26772,261.867412 C1028.24324,251.214336 990.957432,226.712249 990.957432,181.96931 C990.957432,127.638601 1038.89629,101.005902 1079.37802,101.005902 C1121.99029,101.005902 1142.23119,112.72429 1152.88424,124.442676 L1152.88424,104.201825 L1219.99866,104.201825 L1219.99866,186.230542 L1150.75364,186.230542 C1149.68831,163.859073 1128.38221,154.271301 1106.01071,154.271301 C1087.90047,155.336609 1080.44329,162.793765 1080.44329,173.446845 Z M1628.01166,171.31623 L1604.5749,171.31623 L1545.98293,368.398219 L1468.21546,368.398219 L1431.99491,260.8021 L1398.97044,368.398219 L1320.13763,368.398219 L1255.1538,171.31623 L1231.71704,171.31623 L1231.71704,104.201825 L1369.14182,104.201825 L1369.14182,171.31623 L1335.05194,171.31623 L1371.27241,275.716416 L1417.08061,104.201825 L1459.69294,104.201825 L1517.21964,275.716416 L1548.11353,171.31623 L1512.95838,171.31623 L1512.95838,104.201825 L1628.01166,104.201825 L1628.01166,171.31623 Z M1870.90188,236.30002 L1870.90188,253.344945 L1713.23628,253.344945 C1708.97506,304.479736 1728.1506,319.394052 1756.91392,319.394052 C1781.416,319.394052 1799.52624,303.414424 1799.52624,277.847032 L1867.70595,277.847032 C1866.64065,322.589966 1842.13856,373.724756 1752.65269,373.724756 C1662.10154,373.724756 1620.55454,308.740969 1620.55454,236.30002 C1620.55454,171.31623 1664.23214,102.07121 1751.58738,102.07121 C1834.6814,102.07121 1870.90188,159.597841 1870.90188,236.30002 Z M2130.83703,235.234715 L2130.83703,252.279641 L1973.17145,252.279641 C1968.91021,303.414424 1988.08576,318.328733 2016.84908,318.328733 C2041.35116,318.328733 2059.4614,302.349119 2059.4614,276.781721 L2127.64111,276.781721 C2126.57581,321.524661 2102.07372,372.659452 2012.58784,372.659452 C1922.03666,372.659452 1880.48965,307.675657 1880.48965,235.234715 C1880.48965,170.250921 1924.16728,101.005902 2011.52254,101.005902 C2094.61656,101.005902 2130.83703,158.532533 2130.83703,235.234715 Z M2417.4049,367.332914 L2338.5721,367.332914 L2256.54338,259.736795 L2229.91068,279.977649 L2229.91068,301.283808 L2253.34746,301.283808 L2253.34746,368.398219 L2130.83703,368.398219 L2130.83703,302.349119 L2154.27381,302.349119 L2154.27381,67.9813536 L2120.18396,67.9813536 L2120.18396,0.866949472 L2229.91068,0.866949472 L2229.91068,211.797933 L2285.3067,171.31623 L2251.21684,171.31623 L2251.21684,104.201825 L2397.16404,104.201825 L2397.16404,171.31623 L2373.72727,171.31623 L2316.20063,213.92855 L2382.24973,300.218503 L2416.33959,300.218503 C2417.4049,301.283808 2417.4049,367.332914 2417.4049,367.332914 L2417.4049,367.332914 Z M1973.17145,209.667323 L2059.4614,209.667323 C2059.4614,172.381538 2034.95932,157.467225 2017.91438,157.467225 C1996.60822,157.467225 1974.23675,174.512154 1973.17145,209.667323 Z M1713.23628,209.667323 L1799.52624,209.667323 C1799.52624,172.381538 1775.02415,157.467225 1756.91392,157.467225 C1736.67306,158.532533 1714.30159,175.577461 1713.23628,209.667323 L1713.23628,209.667323 Z M433.801338,210.732628 L520.091264,210.732628 C520.091264,173.446845 495.589239,158.532533 477.479001,158.532533 C456.172768,158.532533 434.86667,175.577461 433.801338,210.732628 L433.801338,210.732628 Z" id="Shape"></path>
        </g>
    </g>
</svg>